<svg width="32" height="32" viewBox="0 0 32 32" fill="none" xmlns="http://www.w3.org/2000/svg">
<path d="M18.5 21.4991L5 21.4992" stroke="currentColor" stroke-width="2" stroke-linecap="round" stroke-linejoin="round"/>
<path d="M27 21.4992L23.5 21.4991" stroke="currentColor" stroke-width="2" stroke-linecap="round" stroke-linejoin="round"/>
<path d="M21 23.9991C22.3807 23.9991 23.5 22.8799 23.5 21.4991C23.5 20.1184 22.3807 18.9991 21 18.9991C19.6193 18.9991 18.5 20.1184 18.5 21.4991C18.5 22.8799 19.6193 23.9991 21 23.9991Z" stroke="currentColor" stroke-width="2" stroke-linecap="round" stroke-linejoin="round"/>
<path d="M10.5 10.4992L5 10.4991" stroke="currentColor" stroke-width="2" stroke-linecap="round" stroke-linejoin="round"/>
<path d="M27 10.4991L15.5 10.4992" stroke="currentColor" stroke-width="2" stroke-linecap="round" stroke-linejoin="round"/>
<path d="M13 12.9991C14.3807 12.9991 15.5 11.8799 15.5 10.4991C15.5 9.11843 14.3807 7.99915 13 7.99915C11.6193 7.99915 10.5 9.11843 10.5 10.4991C10.5 11.8799 11.6193 12.9991 13 12.9991Z" stroke="currentColor" stroke-width="2" stroke-linecap="round" stroke-linejoin="round"/>
</svg>
